<?xml version="1.0" standalone="no"?>
<!DOCTYPE svg PUBLIC "-//W3C//DTD SVG 20010904//EN"
 "http://www.w3.org/TR/2001/REC-SVG-20010904/DTD/svg10.dtd">
<svg version="1.0" xmlns="http://www.w3.org/2000/svg"
 width="957.000000pt" height="445.000000pt" viewBox="0 0 957.000000 445.000000"
 preserveAspectRatio="xMidYMid meet">
<metadata>
Created by potrace 1.15, written by Peter Selinger 2001-2017
</metadata>
<g transform="translate(0.000000,445.000000) scale(0.100000,-0.100000)"
fill="#000000" stroke="none">
<path d="M3260 2225 l0 -1445 25 0 25 0 0 1445 0 1445 -25 0 -25 0 0 -1445z"/>
<path d="M3750 2945 l0 -725 235 0 235 0 0 725 0 725 -235 0 -235 0 0 -725z"/>
<path d="M4410 3475 l0 -195 200 0 200 0 0 -530 0 -530 240 0 240 0 0 530 0
530 200 0 200 0 0 195 0 195 -640 0 -640 0 0 -195z"/>
<path d="M5880 2945 l0 -725 240 0 240 0 0 725 0 725 -240 0 -240 0 0 -725z"/>
<path d="M7560 1765 l0 -225 25 0 25 0 0 225 0 225 -25 0 -25 0 0 -225z"/>
<path d="M7980 1921 l0 -70 -27 15 c-58 30 -114 9 -139 -52 -18 -44 -18 -184
0 -229 8 -18 23 -38 34 -44 30 -16 84 -13 110 5 12 8 22 10 22 5 0 -6 11 -11
25 -11 l25 0 0 225 0 225 -25 0 c-24 0 -25 -2 -25 -69z m-40 -101 c37 -20 51
-119 27 -190 -16 -47 -61 -64 -87 -33 -34 43 -36 158 -4 211 16 24 35 28 64
12z"/>
<path d="M3780 1755 l0 -215 30 0 30 0 0 215 0 215 -30 0 -30 0 0 -215z"/>
<path d="M5700 1755 l0 -215 25 0 25 0 1 168 0 167 85 -167 84 -168 35 0 35 0
0 215 0 215 -25 0 -25 0 -2 -167 -3 -168 -85 167 c-84 165 -86 168 -117 168
l-33 0 0 -215z"/>
<path d="M4466 1938 c-2 -7 -7 -25 -10 -40 -4 -16 -13 -28 -21 -28 -9 0 -15
-10 -15 -25 0 -16 6 -25 15 -25 13 0 15 -20 15 -123 0 -147 10 -170 68 -165
32 3 37 7 40 30 3 24 0 28 -20 25 -23 -2 -23 -1 -26 116 -3 112 -2 117 18 117
15 0 20 7 20 25 0 18 -5 25 -19 25 -16 0 -20 8 -23 37 -2 27 -8 39 -21 41 -9
2 -19 -2 -21 -10z"/>
<path d="M4714 1910 c-5 -30 -11 -40 -25 -40 -14 0 -19 -7 -19 -25 0 -15 6
-25 14 -25 11 0 15 -28 18 -129 4 -147 10 -161 69 -161 37 0 39 2 39 30 0 25
-4 29 -22 27 -23 -2 -23 0 -26 116 l-3 117 26 0 c20 0 25 5 25 25 0 20 -5 25
-25 25 -22 0 -25 4 -25 40 0 33 -3 40 -20 40 -15 0 -21 -9 -26 -40z"/>
<path d="M5136 1910 c-4 -26 -11 -40 -21 -40 -9 0 -15 -10 -15 -25 0 -16 6
-25 15 -25 13 0 15 -21 15 -128 0 -114 2 -131 19 -146 12 -11 31 -16 53 -14
28 3 33 7 36 31 3 25 1 28 -17 22 -31 -10 -41 23 -41 134 l0 101 25 0 c20 0
25 5 25 25 0 20 -5 25 -25 25 -22 0 -25 4 -25 40 0 32 -4 40 -19 40 -14 0 -20
-10 -25 -40z"/>
<path d="M3986 1859 c-21 -17 -26 -18 -26 -5 0 10 -9 16 -25 16 l-25 0 0 -165
0 -165 24 0 c23 0 24 1 28 121 4 118 5 122 32 145 33 29 40 30 66 4 18 -18 20
-33 20 -145 l0 -125 25 0 25 0 0 145 c0 142 -1 147 -25 170 -30 31 -82 33
-119 4z"/>
<path d="M4230 1868 c-49 -26 -65 -97 -31 -139 10 -13 47 -35 82 -49 47 -19
65 -31 67 -46 8 -53 -71 -73 -112 -29 -25 27 -34 29 -54 16 -20 -12 11 -69 44
-81 49 -19 110 -12 143 16 27 22 31 33 31 73 0 58 -20 80 -102 111 -49 18 -58
25 -58 45 0 47 74 56 104 13 10 -14 20 -18 36 -13 24 8 20 37 -10 69 -23 24
-105 32 -140 14z"/>
<path d="M5318 1864 c-45 -24 -62 -68 -62 -159 0 -120 37 -175 117 -175 52 0
91 22 111 64 20 43 22 173 2 221 -25 58 -107 83 -168 49z m101 -53 c39 -39 35
-189 -5 -218 -48 -35 -92 1 -101 82 -14 116 48 194 106 136z"/>
<path d="M6114 1870 c-26 -10 -54 -48 -54 -72 0 -25 46 -24 60 1 26 49 100 27
100 -29 0 -29 -1 -30 -50 -30 -28 0 -64 -7 -80 -15 -52 -27 -62 -127 -18 -174
27 -30 88 -28 126 4 28 24 30 24 35 5 5 -20 47 -36 72 -26 22 8 19 46 -4 46
-17 0 -19 10 -23 118 -4 124 -13 152 -55 171 -28 13 -79 13 -109 1z"/>
<path d="M6389 1865 c-37 -20 -59 -82 -59 -166 0 -114 40 -169 122 -169 43 0
76 24 95 67 16 40 17 39 -18 48 -23 6 -27 3 -33 -19 -3 -14 -15 -30 -26 -36
-50 -27 -85 25 -84 125 1 66 14 100 42 107 27 7 59 -8 67 -31 9 -31 55 -29 55
2 -1 66 -95 108 -161 72z"/>
<path d="M6754 1861 c-41 -25 -59 -76 -58 -168 1 -109 42 -162 122 -163 48 0
91 26 108 65 8 20 14 67 14 110 0 43 -6 90 -14 110 -26 61 -110 84 -172 46z
m105 -50 c39 -39 39 -173 0 -212 -46 -46 -97 -9 -106 76 -14 116 48 194 106
136z"/>
<path d="M7066 1859 c-21 -17 -26 -18 -26 -5 0 10 -9 16 -25 16 l-25 0 0 -165
0 -165 25 0 c25 0 25 1 25 88 1 107 12 162 41 185 27 22 35 21 59 -3 18 -18
20 -33 20 -145 l0 -125 25 0 25 0 0 145 c0 142 -1 147 -25 170 -30 31 -82 33
-119 4z"/>
<path d="M7321 1867 c-24 -14 -50 -52 -51 -74 0 -22 58 -16 65 6 13 42 79 37
96 -6 18 -48 13 -53 -52 -53 -54 0 -64 -3 -91 -30 -28 -29 -30 -35 -26 -87 4
-43 10 -61 28 -75 33 -27 95 -24 125 6 23 23 25 23 30 5 7 -20 46 -35 70 -25
19 7 20 46 1 46 -21 0 -26 23 -26 135 0 94 -2 106 -23 131 -28 32 -107 43
-146 21z"/>
<path d="M8151 1867 c-44 -22 -63 -60 -68 -134 -9 -128 34 -203 118 -203 62 0
119 38 119 79 0 23 -39 21 -64 -4 -46 -46 -103 -18 -120 58 l-6 27 101 0 102
0 -7 53 c-12 90 -53 137 -121 137 -16 0 -41 -6 -54 -13z"/>
<path d="M4590 1705 l0 -165 25 0 25 0 0 165 0 165 -25 0 -25 0 0 -165z"/>
<path d="M4840 1735 c0 -177 13 -205 94 -205 17 0 42 7 54 16 12 8 22 10 22 5
0 -6 14 -11 30 -11 l30 0 0 165 0 165 -30 0 -30 0 0 -112 c0 -125 -10 -157
-53 -172 -50 -18 -60 5 -65 153 -5 130 -5 131 -28 131 l-24 0 0 -135z"/>
<path d="M6590 1705 l0 -165 30 0 30 0 0 165 0 165 -30 0 -30 0 0 -165z"/>
<path d="M5120 1155 l0 -225 30 0 30 0 0 225 0 225 -30 0 -30 0 0 -225z"/>
<path d="M6510 1311 l0 -70 -27 15 c-58 30 -114 9 -139 -52 -14 -34 -19 -148
-8 -203 10 -49 46 -81 91 -81 21 0 49 7 61 16 12 8 22 10 22 5 0 -6 12 -11 28
-11 l27 0 -3 225 -3 225 -24 0 c-24 0 -25 -2 -25 -69z m-40 -101 c38 -21 53
-130 26 -195 -19 -45 -61 -58 -86 -27 -36 44 -32 191 6 219 21 16 30 16 54 3z"/>
<path d="M7500 1365 c-7 -8 -15 -35 -18 -60 -4 -35 -9 -45 -23 -45 -14 0 -19
-7 -19 -25 0 -18 5 -25 20 -25 19 0 20 -7 20 -140 l0 -140 30 0 30 0 0 140 0
140 25 0 c20 0 25 5 25 25 0 20 -5 25 -26 25 -23 0 -25 3 -22 33 2 24 8 33 26
35 16 3 22 10 22 28 0 21 -4 24 -39 24 -22 0 -44 -6 -51 -15z"/>
<path d="M3750 1330 l0 -30 60 0 60 0 0 -185 0 -185 25 0 25 0 0 185 0 185 60
0 60 0 0 30 0 30 -145 0 -145 0 0 -30z"/>
<path d="M7060 1145 l0 -215 30 0 30 0 0 215 0 215 -30 0 -30 0 0 -215z"/>
<path d="M4081 1257 c-44 -22 -63 -60 -68 -134 -9 -128 34 -203 118 -203 62 0
119 38 119 79 0 23 -39 21 -64 -4 -46 -46 -103 -18 -120 58 l-6 27 101 0 102
0 -7 53 c-12 90 -53 137 -121 137 -16 0 -41 -6 -54 -13z"/>
<path d="M4361 1258 c-83 -44 -95 -249 -19 -313 50 -42 129 -30 161 25 19 31
22 60 8 60 -5 0 -16 3 -25 6 -11 4 -19 -2 -25 -19 -14 -35 -45 -51 -71 -37
-28 15 -40 50 -40 115 0 97 36 143 86 110 13 -8 24 -22 24 -30 0 -10 10 -15
31 -15 29 0 31 2 24 28 -15 62 -98 100 -154 70z"/>
<path d="M4636 1249 c-21 -17 -26 -18 -26 -5 0 10 -9 16 -25 16 l-25 0 0 -165
0 -165 24 0 c23 0 24 1 28 121 4 118 5 122 32 145 33 29 40 30 66 4 18 -18 20
-33 20 -145 l0 -125 25 0 25 0 0 145 c0 142 -1 147 -25 170 -30 31 -82 33
-119 4z"/>
<path d="M4901 1258 c-47 -25 -65 -64 -69 -143 -5 -88 9 -136 49 -170 65 -54
166 -20 189 63 23 85 7 192 -34 231 -30 28 -100 38 -135 19z m95 -59 c14 -15
19 -39 22 -92 4 -100 -24 -148 -80 -134 -34 9 -48 46 -48 128 0 61 3 73 25 94
30 31 56 32 81 4z"/>
<path d="M5284 1251 c-39 -24 -57 -74 -57 -156 0 -70 16 -125 43 -150 28 -25
100 -31 139 -10 44 22 61 68 61 160 0 43 -6 90 -14 110 -26 61 -110 84 -172
46z m105 -50 c39 -39 39 -173 0 -212 -61 -61 -123 25 -104 147 11 75 62 107
104 65z"/>
<path d="M5561 1254 c-13 -9 -29 -32 -37 -50 -19 -46 -18 -187 2 -229 27 -57
99 -70 148 -27 18 16 19 16 13 -26 -3 -23 -11 -49 -17 -57 -18 -22 -67 -19
-82 5 -17 27 -68 28 -68 1 0 -10 12 -30 26 -45 35 -34 117 -37 157 -6 33 26
36 44 39 263 l3 177 -27 0 c-19 0 -28 -5 -28 -16 0 -13 -5 -12 -26 5 -32 25
-71 27 -103 5z m94 -57 c22 -18 27 -34 32 -82 6 -70 -6 -107 -41 -130 -35 -23
-62 -6 -77 47 -14 55 -3 144 22 169 24 24 32 24 64 -4z"/>
<path d="M5980 1263 c-53 -21 -83 -93 -39 -93 12 0 32 11 45 25 13 14 30 25
39 25 23 0 55 -37 55 -65 0 -23 -3 -25 -52 -25 -29 0 -64 -6 -78 -13 -52 -26
-64 -133 -19 -178 26 -26 88 -25 123 2 l27 22 16 -22 c21 -31 77 -26 81 7 3
16 -2 22 -16 22 -18 0 -20 9 -24 120 -4 114 -6 122 -30 146 -26 26 -95 41
-128 27z"/>
<path d="M6671 1257 c-24 -14 -50 -52 -51 -74 0 -22 58 -16 65 6 13 42 79 37
96 -6 18 -48 13 -53 -52 -53 -54 0 -64 -3 -91 -30 -28 -29 -30 -35 -26 -87 4
-43 10 -61 28 -75 33 -27 95 -24 125 6 23 23 25 23 30 5 7 -20 46 -35 70 -25
19 7 20 46 1 46 -21 0 -26 23 -26 135 0 94 -2 106 -23 131 -28 32 -107 43
-146 21z"/>
<path d="M7266 1249 c-21 -17 -26 -18 -26 -5 0 10 -9 16 -25 16 l-25 0 0 -165
0 -165 24 0 c24 0 24 1 27 121 4 118 5 121 32 145 34 29 41 30 67 4 18 -18 20
-33 20 -145 l0 -125 25 0 25 0 0 145 c0 142 -1 147 -25 170 -30 31 -82 33
-119 4z"/>
<path d="M7671 1258 c-44 -24 -63 -61 -68 -135 -10 -131 34 -203 122 -203 81
0 125 62 125 175 0 109 -36 164 -112 172 -24 2 -53 -2 -67 -9z m98 -64 c17
-21 21 -41 21 -99 0 -82 -22 -125 -65 -125 -43 0 -65 43 -65 127 0 65 3 77 25
98 31 32 58 32 84 -1z"/>
<path d="M7967 1253 c-11 -11 -17 -13 -17 -5 0 7 -13 12 -31 12 -28 0 -31 -3
-25 -22 3 -13 6 -87 6 -165 l0 -143 25 0 25 0 0 104 c0 126 11 165 51 173 24
4 29 11 29 34 0 24 -4 29 -23 29 -12 0 -30 -8 -40 -17z"/>
<path d="M8142 1254 c-12 -8 -22 -10 -22 -5 0 6 -13 11 -30 11 l-30 0 0 -165
0 -165 29 0 29 0 4 126 c3 118 4 127 27 145 28 23 35 23 55 3 13 -12 16 -41
16 -145 l0 -129 24 0 c23 0 24 2 28 118 3 64 9 125 13 135 11 26 41 40 64 28
24 -13 31 -52 31 -177 l0 -104 25 0 25 0 0 135 c0 172 -14 205 -85 205 -13 0
-36 -10 -51 -23 l-27 -23 -23 23 c-27 27 -70 30 -102 7z"/>
<path d="M8544 1260 c-26 -10 -54 -48 -54 -72 0 -13 8 -18 30 -18 20 0 30 5
30 15 0 9 11 20 25 27 35 16 75 -12 75 -52 0 -29 -1 -30 -50 -30 -90 0 -122
-30 -122 -113 1 -37 6 -55 23 -73 31 -33 87 -33 127 1 28 24 30 24 35 5 5 -20
47 -36 72 -26 22 8 18 43 -5 49 -18 5 -20 14 -20 105 0 116 -12 157 -51 177
-31 16 -82 19 -115 5z"/>
<path d="M8831 1257 c-48 -24 -66 -62 -69 -146 -5 -103 19 -163 72 -182 30
-11 35 -16 30 -36 -5 -19 -2 -23 16 -23 29 0 23 -34 -8 -38 -28 -4 -31 -42 -3
-42 37 0 70 19 77 44 7 30 -11 66 -34 66 -12 0 -6 10 20 33 32 27 65 83 56 93
-2 1 -15 5 -29 9 -23 6 -27 3 -33 -20 -4 -14 -18 -31 -32 -37 -21 -10 -28 -8
-46 9 -35 36 -44 163 -14 204 19 27 53 32 74 11 11 -11 21 -25 24 -32 2 -6 15
-10 29 -8 24 3 25 5 17 36 -15 57 -91 88 -147 59z"/>
<path d="M9085 1261 c-26 -11 -51 -41 -58 -68 -4 -19 -1 -23 18 -23 13 0 35
11 49 25 14 14 32 25 41 25 23 0 55 -37 55 -64 0 -22 -4 -24 -66 -28 -55 -3
-70 -8 -85 -27 -37 -46 -36 -124 2 -162 26 -26 88 -25 123 2 l27 22 16 -22
c20 -30 67 -25 71 7 2 14 -2 22 -11 22 -21 0 -27 31 -27 142 0 86 -2 100 -23
123 -25 29 -94 43 -132 26z"/>
<path d="M9354 1251 c-39 -24 -56 -72 -56 -156 0 -115 29 -164 105 -172 59 -7
104 17 124 65 21 50 20 179 -1 221 -31 59 -112 79 -172 42z m105 -50 c36 -36
39 -156 5 -208 -10 -15 -24 -23 -44 -23 -34 0 -55 26 -65 83 -16 84 17 167 65
167 11 0 29 -9 39 -19z"/>
<path d="M5800 1095 l0 -165 30 0 30 0 0 165 0 165 -30 0 -30 0 0 -165z"/>
</g>
</svg>
